<?xml version="1.0" standalone="no"?>
<!DOCTYPE svg PUBLIC "-//W3C//DTD SVG 20010904//EN"
 "http://www.w3.org/TR/2001/REC-SVG-20010904/DTD/svg10.dtd">
<svg version="1.0" xmlns="http://www.w3.org/2000/svg"
 width="90.000000pt" height="28.000000pt" viewBox="0 0 90.000000 28.000000"
 preserveAspectRatio="xMidYMid meet">
<metadata>
Created by potrace 1.16, written by Peter Selinger 2001-2019
</metadata>
<g transform="translate(0.000000,28.000000) scale(0.004500,-0.005091)"
fill="#000000" stroke="none">
<path d="M8856 5474 c-132 -32 -270 -134 -335 -247 -66 -117 -80 -296 -31
-420 30 -80 131 -186 214 -227 174 -86 436 -74 599 26 142 88 225 225 242 402
22 223 -131 423 -363 471 -73 15 -254 12 -326 -5z"/>
<path d="M3845 4748 c-14 -61 -498 -2508 -515 -2606 -35 -198 -24 -394 29
-545 78 -222 275 -396 534 -471 235 -68 595 -57 857 26 94 30 223 89 234 107
7 10 -113 602 -124 614 -4 5 -36 -6 -70 -23 -128 -65 -305 -88 -416 -55 -71
21 -128 73 -153 141 -38 100 -32 151 102 819 l123 610 369 5 369 5 61 305 c34
168 64 320 68 338 l7 32 -370 0 -370 0 5 23 c13 55 135 672 135 684 0 10 -86
13 -435 13 l-435 0 -5 -22z"/>
<path d="M1635 4149 c-433 -38 -780 -181 -1003 -413 -166 -173 -242 -370 -242
-628 0 -242 71 -396 246 -538 134 -107 312 -178 619 -244 381 -83 452 -99 522
-122 105 -34 150 -65 175 -120 17 -39 18 -51 8 -98 -22 -108 -123 -181 -300
-219 -124 -26 -393 -27 -555 -2 -273 42 -562 141 -729 250 l-24 16 -166 -313
c-92 -172 -164 -318 -162 -325 8 -20 136 -90 241 -132 415 -165 1007 -224
1475 -145 460 77 810 287 959 574 64 121 92 233 98 385 11 266 -53 428 -225
569 -161 131 -306 184 -767 281 -207 43 -376 87 -441 115 -154 66 -179 211
-54 324 113 102 341 148 629 126 251 -19 440 -69 635 -166 60 -30 110 -53 111
-52 6 6 134 265 221 446 l93 194 -92 43 c-343 160 -822 233 -1272 194z"/>
<path d="M7646 4149 c-194 -18 -399 -71 -537 -139 -102 -51 -143 -77 -238
-155 -45 -36 -81 -62 -81 -57 0 5 14 76 30 157 17 81 30 150 30 152 0 1 -186
3 -414 3 l-414 0 -5 -22 c-8 -34 -587 -2945 -587 -2952 0 -3 197 -5 437 -4
l437 3 151 755 c83 415 164 793 179 840 83 261 223 434 431 535 153 74 236 90
471 90 l201 0 77 395 c42 217 76 398 76 403 0 9 -114 7 -244 -4z"/>
<path d="M11635 4153 c-283 -24 -554 -130 -757 -296 -32 -26 -58 -42 -58 -35
0 7 13 75 29 151 l29 137 -416 -2 -416 -3 -296 -1487 -296 -1488 437 0 437 0
5 23 c3 12 71 355 152 762 150 760 162 817 197 920 95 279 295 470 563 541 89
24 334 26 410 5 215 -61 315 -206 315 -461 0 -96 -14 -174 -165 -925 -91 -451
-167 -830 -170 -843 l-5 -22 438 0 439 0 167 833 c213 1062 198 971 198 1172
1 193 -16 300 -71 442 -82 212 -262 393 -479 484 -189 78 -445 113 -687 92z"/>
<path d="M14855 4150 c-738 -84 -1310 -609 -1437 -1320 -27 -153 -30 -423 -5
-560 92 -503 452 -856 990 -972 86 -18 134 -22 312 -22 180 0 225 3 312 22
193 42 363 118 505 225 l84 63 -14 -76 c-19 -103 -67 -251 -109 -335 -144
-288 -365 -423 -742 -455 -378 -32 -851 81 -1099 264 -34 25 -66 46 -71 46
-10 0 -402 -596 -408 -620 -7 -28 210 -156 381 -224 195 -79 432 -135 680
-161 187 -19 513 -19 680 0 614 72 1040 338 1314 820 93 163 197 446 246 665
25 115 516 2580 516 2593 0 4 -188 6 -417 5 l-418 -3 -45 -231 -45 -232 -35
61 c-44 76 -155 195 -234 251 -121 86 -282 150 -451 181 -107 19 -378 27 -490
15z m504 -740 c220 -53 367 -186 427 -385 28 -94 24 -291 -9 -417 -76 -289
-294 -510 -583 -590 -66 -18 -106 -22 -244 -22 -142 -1 -176 2 -243 22 -251
72 -393 227 -429 470 -13 92 2 257 33 359 90 289 324 502 624 566 107 23 320
22 424 -3z"/>
<path d="M18685 4154 c-262 -26 -381 -49 -546 -104 -408 -136 -672 -393 -740
-723 -26 -128 -26 -317 1 -421 39 -155 133 -280 284 -381 151 -100 296 -146
792 -250 381 -79 474 -129 474 -252 0 -130 -108 -217 -320 -260 -105 -21 -392
-21 -535 1 -269 41 -547 135 -716 242 -29 18 -40 21 -46 11 -4 -6 -80 -149
-170 -317 l-162 -305 22 -18 c12 -9 72 -41 132 -71 188 -93 440 -162 735 -202
178 -25 600 -25 763 -1 532 79 910 305 1058 634 53 115 73 220 73 383 0 218
-40 335 -158 458 -165 173 -308 233 -807 341 -508 110 -599 153 -599 284 0 91
52 163 159 216 122 62 323 88 550 71 251 -19 450 -73 645 -173 55 -28 101 -46
103 -41 2 6 71 147 154 314 82 167 148 309 145 316 -7 19 -151 83 -291 129
-132 43 -321 85 -475 105 -87 11 -454 21 -525 14z"/>
<path d="M8091 2633 c-162 -813 -296 -1484 -299 -1490 -3 -10 87 -13 431 -13
406 0 436 1 441 18 8 26 586 2937 586 2950 0 9 -106 12 -433 12 l-432 0 -294
-1477z"/>
</g>
</svg>
